<?xml version="1.0" encoding="utf-8"?>
<!-- Generator: Adobe Illustrator 26.0.0, SVG Export Plug-In . SVG Version: 6.00 Build 0)  -->
<svg version="1.1" id="Layer_1" xmlns="http://www.w3.org/2000/svg" xmlns:xlink="http://www.w3.org/1999/xlink" x="0px" y="0px"
	 viewBox="0 0 300 245.3" style="enable-background:new 0 0 300 245.3;" xml:space="preserve">
<style type="text/css">
	.st0{fill:#FFFFFF;}
	.st1{fill:#3AB3E2;}
</style>
<g>
	<path class="st1" d="M190.5,226.3c-1.8,0-3.5-0.3-5.1-0.8c-7.9-2.8-8.3-14-8.8-28.2c-0.3-9.7-0.7-20.7-3.3-30.7
		c-2.5-9.4-12.6-19.5-23.8-19.5c-10.6,0-21.2,8.7-23.8,19.4c-2.4,9.9-2.8,20.6-3.1,30c-0.6,14.6-1,26.1-9,28.9
		c-5.3,1.8-11.8,0.6-17.5-3.4c-8.9-6.3-19.5-22.2-19.5-61.6c0-19.2-4.5-30.2-8.5-40c-4.4-10.9-8.6-21.1-5.3-38.8
		C65.7,66,74.4,54,87.9,46.7c19.8-10.6,45.3-8.7,61.5-2.3c16.3-6.4,42.1-8.3,61.9,2.4l-3.8,7.1c-17.3-9.4-41.5-7.8-56.5-1.5
		c-1,0.4-2.1,0.4-3.1,0c-14.4-6.1-38.1-8.3-56.2,1.4c-11.5,6.1-18.5,16-21.1,29.3c-2.9,15.4,0.5,23.7,4.8,34.3
		c4.3,10.4,9.1,22.2,9.1,43c0,37.9,10.1,50.8,16.1,55.1c4.1,2.9,8.1,3.1,10.2,2.4c2.9-1,3.3-12.9,3.6-21.7c0.4-9.8,0.8-21,3.4-31.6
		c3.5-14.3,17.3-25.5,31.6-25.5c15.4,0,28.4,13.2,31.6,25.5c2.9,11,3.3,22.4,3.6,32.5c0.3,8.4,0.7,19.9,3.4,20.9
		c2.1,0.7,6.1,0.6,10.2-2.4c6-4.3,16.1-17.1,16.1-55.1c0-20.6,4.8-32,9-42.1c3-7.1,5.6-13.3,5.9-21.8l8,0.3
		c-0.4,9.9-3.4,17-6.6,24.5c-4.1,9.8-8.4,20-8.4,39c0,39.4-10.6,55.3-19.5,61.6C199,224.8,194.6,226.3,190.5,226.3z"/>
	<path class="st1" d="M85.5,93.4c-0.2,0-0.5,0-0.8-0.1c-2.2-0.4-3.6-2.5-3.2-4.7c4.2-22.1,23.6-29.9,40.7-29.9c0.4,0,0.7,0,1.1,0
		c2.2,0,4,1.9,3.9,4.1c0,2.2-1.8,3.9-4,3.9c0,0-0.1,0-0.1,0c-6.8-0.1-29.5,1.2-33.7,23.4C89.1,92,87.4,93.4,85.5,93.4z"/>
	<path class="st1" d="M35.9,189.1c-3.1,0-5.6-2.5-5.6-5.6c0-12.5-9.8-22.3-22.3-22.3c-3.1,0-5.6-2.5-5.6-5.6c0-3.1,2.5-5.6,5.6-5.6
		c12.5,0,22.3-9.8,22.3-22.3c0-3.1,2.5-5.6,5.6-5.6c3.1,0,5.6,2.5,5.6,5.6c0,12.5,9.8,22.3,22.3,22.3c3.1,0,5.6,2.5,5.6,5.6
		c0,3.1-2.5,5.6-5.6,5.6c-12.5,0-22.3,9.8-22.3,22.3C41.5,186.5,39,189.1,35.9,189.1z M20,155.5c7.2,3,12.9,8.7,15.9,15.9
		c3-7.2,8.7-12.9,16-15.9c-7.2-3-12.9-8.7-16-15.9C32.9,146.7,27.2,152.4,20,155.5z"/>
	<path class="st1" d="M125.9,218.1c-3.5,0-7.1-0.9-10.4-2.7l3.8-7.1c4.9,2.7,9.1,1.5,10.2,1.1c3.2-1.1,3.6-12,4-21.5
		c0.4-9.4,0.8-21.1,3.5-32.5c1.3-5.4,4-10.5,7.8-15l6.1,5.2c-3,3.5-5.1,7.5-6.1,11.6c-2.5,10.7-2.9,21.5-3.3,31
		c-0.6,14.4-1,25.8-9.3,28.8C130.2,217.8,128,218.1,125.9,218.1z"/>
	<path class="st1" d="M249.8,114.8c-2.2,0-4-1.8-4-4c0-19.8-20.1-39.9-39.9-39.9c-2.2,0-4-1.8-4-4s1.8-4,4-4
		c19.7,0,39.9-20.1,39.9-39.9c0-2.2,1.8-4,4-4s4,1.8,4,4c0,19.8,20.1,39.9,39.9,39.9c2.2,0,4,1.8,4,4s-1.8,4-4,4
		c-19.8,0-39.9,20.1-39.9,39.9C253.8,113,252,114.8,249.8,114.8z M223.4,66.9c11.4,5.2,21.2,15,26.4,26.4
		c5.2-11.4,15-21.2,26.4-26.4c-11.4-5.2-21.2-15-26.4-26.4C244.6,51.9,234.8,61.7,223.4,66.9z"/>
</g>
</svg>
